:SAMPLES-PER-SECOND 30
:FULLY-SPECIFIED
:DEGREES
438
root  9.48516 34.056 -18.9697 0.189026 26.5783 -3.35689
RightUpLeg  -9.3058 -7.74179 0.48394
RightLeg  23.0738 4.98791 1.74931
RightFoot  -2.56088 -0.0139095 -0.0958426
RightToes  -24.5085 -0.107991 -0.212046
Spine  -1.27459 1.38945 -2.13318
Spine1  -2.53742 2.76061 -3.50415
HEad  -69.8964 -20.4192 11.3787
LeftShoulder1  -1.94126e-019 -3.10601e-018 -2.51263e-017
LeftArm  -2.13917 16.2213 -79.7847
LeftForeArm  30.5502 -35.1477 -6.09875
LeftHand  -0.540697 -2.13297 8.54167
RightShoulder  -4.96962e-017 0 -2.36833e-017
RightArm  -52.129 45.2641 22.018
RightForeArm  44.4352 56.9553 13.4054
RightHand  -0.0384915 -5.10364 -6.79977
LeftUpLeg  -13.1696 -2.99735 8.90375
LeftLeg  27.1994 11.1812 4.81956
LeftFoot  0.495227 -0.000487762 0.274474
LeftToes  -22.1561 2.25955e-006 -3.67304e-008
439
root  10.0275 34.0825 -18.987 1.0446 25.7488 -2.22687
RightUpLeg  -9.77588 -8.33957 -1.32067
RightLeg  23.7482 5.81839 2.1168
RightFoot  -2.53792 -0.0146492 -0.1406
RightToes  -25.7417 -0.115724 -0.221308
Spine  -1.34401 1.29061 -2.38138
Spine1  -2.68327 2.54361 -3.99264
HEad  -71.046 -19.7115 9.94176
LeftShoulder1  -1.94126e-019 -3.10601e-018 -2.51263e-017
LeftArm  -2.40352 17.5537 -78.9491
LeftForeArm  30.1743 -34.8341 -6.03433
LeftHand  -0.532646 -2.0687 8.4854
RightShoulder  -4.96962e-017 0 -2.36833e-017
RightArm  -53.579 43.1924 24.5286
RightForeArm  55.6851 69.4315 23.9092
RightHand  -0.00529198 -5.60428 -8.94003
LeftUpLeg  -12.5774 -0.415559 7.17589
LeftLeg  26.3194 10.006 4.14051
LeftFoot  0.0351171 -3.02255e-006 0.172291
LeftToes  -20.8018 2.25955e-006 -3.67304e-008
440
root  10.4995 34.1696 -18.9644 1.71886 24.6847 -1.65395
RightUpLeg  -9.56633 -8.20836 -2.3078
RightLeg  22.7016 5.29028 1.81708
RightFoot  -1.8961 -0.00961784 -0.0514522
RightToes  -26.2148 -0.118744 -0.224817
Spine  -1.5294 1.24387 -2.4746
Spine1  -3.04909 2.42468 -4.17003
HEad  -72.3183 -18.9703 8.72611
LeftShoulder1  -1.94126e-019 -3.10601e-018 -2.51263e-017
LeftArm  -3.45155 18.8546 -78.2173
LeftForeArm  29.1123 -33.4828 -5.74865
LeftHand  -0.504035 -1.69636 8.43438
RightShoulder  -4.96962e-017 0 -2.36833e-017
RightArm  -55.0929 43.7317 26.8098
RightForeArm  62.4934 74.2177 33.1012
RightHand  0.170613 -6.76982 -15.8098
LeftUpLeg  -11.9071 -0.459493 5.95054
LeftLeg  25.487 11.1152 4.40664
LeftFoot  0.00927703 -0.000337397 0.165035
LeftToes  -19.997 2.25955e-006 -3.67304e-008
441
root  10.9298 34.285 -18.8968 2.0704 23.0187 -1.27509
RightUpLeg  -8.74938 -6.88964 -3.04511
RightLeg  20.7667 4.76681 1.4608
RightFoot  -0.915313 -0.00402939 0.0521599
RightToes  -26.5125 -0.120658 -0.227012
Spine  -1.79221 1.46211 -2.54575
Spine1  -3.56464 2.81978 -4.30584
HEad  -72.6576 -18.5718 8.34093
LeftShoulder1  -1.94126e-019 -3.10601e-018 -2.51263e-017
LeftArm  -4.28847 19.7549 -77.5465
LeftForeArm  27.4336 -30.9833 -5.2414
LeftHand  -0.4691 -1.01706 8.63931
RightShoulder  -4.96962e-017 0 -2.36833e-017
RightArm  -56.6068 47.0691 28.2485
RightForeArm  56.1281 70.2268 25.1769
RightHand  0.27795 -6.94381 -21.4245
LeftUpLeg  -10.4417 -0.0718956 4.91033
LeftLeg  23.7736 12.5611 4.54497
LeftFoot  0.0745416 -1.02033e-005 0.17764
LeftToes  -18.5042 2.25955e-006 -3.67304e-008
442
root  11.3048 34.3871 -18.8086 2.12541 20.832 -1.03381
RightUpLeg  -7.66256 -4.42223 -3.70091
RightLeg  18.582 4.63454 1.23045
RightFoot  0.233889 0.000388854 0.147171
RightToes  -27.7505 -0.128741 -0.236031
Spine  -2.01816 1.98585 -2.60827
Spine1  -4.01767 3.82835 -4.44179
HEad  -72.4568 -18.5969 9.14403
LeftShoulder1  -1.94126e-019 -3.10601e-018 -2.51263e-017
LeftArm  -5.16823 19.9114 -76.8975
LeftForeArm  26.647 -27.9584 -4.81704
LeftHand  -0.427589 -0.448487 8.60377
RightShoulder  -4.96962e-017 0 -2.36833e-017
RightArm  -59.088 51.3876 27.2702
RightForeArm  51.3226 59.7723 14.5903
RightHand  0.0843608 -5.97624 -19.0496
LeftUpLeg  -8.50554 -0.450152 3.95054
LeftLeg  21.8253 15.1845 4.90268
LeftFoot  0.165063 -6.13851e-005 0.204354
LeftToes  -17.1321 2.25955e-006 -3.67304e-008
443
root  11.6229 34.4577 -18.7435 2.32939 19.1432 -0.900562
RightUpLeg  -6.91874 -3.26439 -4.30442
RightLeg  16.6785 5.25408 1.2105
RightFoot  1.29091 0.00269754 0.239746
RightToes  -29.4909 -0.140431 -0.248412
Spine  -2.3392 2.4661 -2.70603
Spine1  -4.6493 4.72947 -4.64944
HEad  -72.1913 -18.7885 10.517
LeftShoulder1  -1.94126e-019 -3.10601e-018 -2.51263e-017
LeftArm  -6.00792 19.8133 -76.088
LeftForeArm  28.2286 -25.2782 -4.48877
LeftHand  -0.403575 -0.215043 8.4422
RightShoulder  -4.96962e-017 0 -2.36833e-017
RightArm  -61.1899 55.4228 24.1227
RightForeArm  47.9812 45.9317 8.28256
RightHand  -0.0645276 -5.00159 -15.0928
LeftUpLeg  -7.07456 -1.15557 3.12706
LeftLeg  20.0609 17.6943 5.10213
LeftFoot  0.265546 0.00076794 0.242092
LeftToes  -16.0821 2.25955e-006 -3.67304e-008
444
root  11.8998 34.5184 -18.7307 2.64558 18.1965 -0.705854
RightUpLeg  -6.45969 -3.56261 -5.01527
RightLeg  15.1669 6.53977 1.3261
RightFoot  2.24817 0.00235022 0.366639
RightToes  -31.4003 -0.153681 -0.261579
Spine  -2.64802 2.84447 -2.90029
Spine1  -5.24957 5.41421 -5.04888
HEad  -72.3766 -19.0416 12.0313
LeftShoulder1  -1.94126e-019 -3.10601e-018 -2.51263e-017
LeftArm  -6.13355 19.6151 -75.0095
LeftForeArm  30.4979 -23.5372 -4.25873
LeftHand  -0.407011 -0.0601386 8.74163
RightShoulder  -4.96962e-017 0 -2.36833e-017
RightArm  -60.3905 57.8926 19.7461
RightForeArm  44.8096 33.6891 4.99748
RightHand  -0.108648 -4.19513 -8.99849
LeftUpLeg  -6.01645 -0.745028 2.45738
LeftLeg  18.0832 18.441 4.64132
LeftFoot  0.512537 -0.000908222 0.327131
LeftToes  -15.3471 2.25955e-006 -3.67304e-008
445
root  12.1236 34.5626 -18.7403 2.97135 18.2708 -0.594428
RightUpLeg  -6.02401 -4.77087 -5.56534
RightLeg  13.8989 7.63635 1.3731
RightFoot  3.04006 -0.000517155 0.504942
RightToes  -32.7944 -0.163629 -0.270911
Spine  -2.85581 3.00518 -3.1547
Spine1  -5.63807 5.66608 -5.55548
HEad  -72.8673 -19.3703 13.3769
LeftShoulder1  -1.94126e-019 -3.10601e-018 -2.51263e-017
LeftArm  -5.31777 19.7302 -73.4925
LeftForeArm  30.8428 -23.6053 -4.28418
LeftHand  -0.404124 0.195941 9.08404
RightShoulder  -4.96962e-017 0 -2.36833e-017
RightArm  -58.7637 57.9179 17.676
RightForeArm  46.7346 28.271 4.54145
RightHand  -0.123593 -1.78039 -3.72019
LeftUpLeg  -5.51881 0.00546383 2.09235
LeftLeg  16.5454 17.7717 3.98489
LeftFoot  0.692579 -0.00129949 0.376615
LeftToes  -14.6204 2.25955e-006 -3.67304e-008
446
root  12.3011 34.5893 -18.7845 3.33647 18.9987 -0.467653
RightUpLeg  -5.79217 -5.75096 -5.98909
RightLeg  13.1153 7.84301 1.30014
RightFoot  3.56951 -0.00277333 0.58387
RightToes  -33.6575 -0.169901 -0.276566
Spine  -2.86138 2.88687 -3.39573
Spine1  -5.62274 5.39189 -6.01641
HEad  -73.8449 -19.3385 14.3842
LeftShoulder1  -1.94126e-019 -3.10601e-018 -2.51263e-017
LeftArm  -6.40531 19.8734 -72.2918
LeftForeArm  30.3239 -24.3029 -4.39288
LeftHand  -0.425676 0.214628 9.60064
RightShoulder  -4.96962e-017 0 -2.36833e-017
RightArm  -54.6461 55.8563 19.4951
RightForeArm  48.7265 31.7116 4.6349
RightHand  -0.153987 -3.0274 -6.9641
LeftUpLeg  -5.50038 -0.0714538 1.72632
LeftLeg  15.5957 17.2801 3.58402
LeftFoot  0.872186 -0.00293513 0.425326
LeftToes  -14.1431 2.25955e-006 -3.67304e-008
447
root  12.4438 34.6049 -18.8177 3.59171 19.8914 -0.285385
RightUpLeg  -5.53089 -6.2242 -6.35133
RightLeg  12.6347 7.36695 1.15854
RightFoot  3.75856 0.000398923 0.581659
RightToes  -33.3023 -0.171579 -0.27808
Spine  -2.71832 2.6673 -3.43558
Spine1  -5.34299 4.97333 -6.07942
HEad  -74.8706 -19.1038 14.4691
LeftShoulder1  -1.94126e-019 -3.10601e-018 -2.51263e-017
LeftArm  -8.20673 20.2265 -71.7681
LeftForeArm  28.9198 -24.4826 -4.34335
LeftHand  -0.432397 0.365023 10.03
RightShoulder  -4.96962e-017 0 -2.36833e-017
RightArm  -55.9652 53.237 23.2885
RightForeArm  43.5768 40.2463 6.79488
RightHand  -0.0861182 -4.48724 -8.84271
LeftUpLeg  -5.30586 -1.19748 1.28904
LeftLeg  14.6174 17.5841 3.33862
LeftFoot  1.0794 -0.00656284 0.497133
LeftToes  -13.6338 2.25955e-006 -3.67304e-008
